<?xml version="1.0" standalone="no"?>
<!DOCTYPE svg PUBLIC "-//W3C//DTD SVG 1.1//EN" "http://www.w3.org/Graphics/SVG/1.1/DTD/svg11.dtd" >
<svg xmlns="http://www.w3.org/2000/svg" xmlns:xlink="http://www.w3.org/1999/xlink" version="1.1">
<metadata>
Created by FontForge 20170731 at Tue Apr  7 05:21:59 2015
 By Aleksey,,,
(c) 2000-2015 Typodermic Fonts Inc. See attached license agreement. If agreement is missing visit typodermicfonts.com for more info.
</metadata>
<defs>
<font id="AstronBoyRg-Regular" horiz-adv-x="463" >
  <font-face 
    font-family="Astron Boy Rg"
    font-weight="400"
    font-stretch="normal"
    units-per-em="1000"
    panose-1="2 1 6 1 1 1 1 1 1 1"
    ascent="600"
    descent="-400"
    x-height="401"
    cap-height="641"
    bbox="-40 -194 1088 784"
    underline-thickness="50"
    underline-position="-175"
    unicode-range="U+0020-2122"
  />
<missing-glyph horiz-adv-x="452" 
d="M129 0q-97 0 -97 84v488q0 85 97 85h193q98 0 98 -85v-488q0 -84 -98 -84h-193zM368 572q0 39 -46 39h-193q-46 0 -46 -39v-488q0 -39 46 -39h193q46 0 46 39v488z" />
    <glyph glyph-name=".notdef" horiz-adv-x="452" 
d="M129 0q-97 0 -97 84v488q0 85 97 85h193q98 0 98 -85v-488q0 -84 -98 -84h-193zM368 572q0 39 -46 39h-193q-46 0 -46 -39v-488q0 -39 46 -39h193q46 0 46 39v488z" />
    <glyph glyph-name=".null" horiz-adv-x="0" 
 />
    <glyph glyph-name="nonmarkingreturn" horiz-adv-x="500" 
 />
    <glyph glyph-name="space" unicode=" " horiz-adv-x="200" 
 />
    <glyph glyph-name="exclam" unicode="!" horiz-adv-x="176" 
d="M40 118h96v-118h-96v118zM64 641h48v-487h-48v487z" />
    <glyph glyph-name="quotedbl" unicode="&#x22;" horiz-adv-x="177" 
d="M103 661h59l-16 -201h-27zM15 661h59l-16 -201h-27z" />
    <glyph glyph-name="numbersign" unicode="#" horiz-adv-x="497" 
d="M131 285h191v99h-191v-99zM72 233l-32 52h61v99h-29l-32 56h61v201h30v-201h191v201h67v-201h68v-56h-68v-99h68v-52h-68v-233h-67v233h-191v-233h-30v233h-29z" />
    <glyph glyph-name="dollar" unicode="$" horiz-adv-x="506" 
d="M318 251v-60h27q9 0 15.5 5t6.5 12q0 6 -9 14zM140 439q1 -5 9 -9l53 -40v70h-40q-23 0 -23 -16q0 -3 1 -5zM257 191h37v78l-37 29v-107zM257 347l37 -29v142h-37v-113zM318 21h-24v48h-37v-48h-55v48h-152v122h152v148l-108 83q-26 14 -38.5 36.5t-12.5 45.5
q0 30 23.5 54t71.5 24h64v34h55v-34h37v34h24v-34h137v-122h-137v-159l95 -71q25 -15 37.5 -38t12.5 -46q0 -30 -23 -53.5t-71 -23.5h-51v-48z" />
    <glyph glyph-name="percent" unicode="%" horiz-adv-x="713" 
d="M79 569v-123q1 -22 25 -22h144v128q0 17 -15 17h-154zM90 351q-49 0 -50 73v217h198q47 0 49 -72v-218h-197zM465 218v-123q1 -22 25 -22h144v128q0 17 -16 17h-153zM475 0q-49 0 -49 73v217h197q48 0 50 -72v-218h-198zM122 0h-58l536 641h61z" />
    <glyph glyph-name="ampersand" unicode="&#x26;" horiz-adv-x="658" 
d="M106 118h352v266h-352v-266zM132 518q-26 0 -26 -28v-50h512v-56h-83v-266h83v-118h-578v518q1 123 84 123h199v-123h-191z" />
    <glyph glyph-name="quotesingle" unicode="'" horiz-adv-x="80" 
d="M10 661h59l-16 -201h-27z" />
    <glyph glyph-name="parenleft" unicode="(" horiz-adv-x="221" 
d="M125 -42q-83 184 -83 366q0 90 20.5 179t62.5 179h56q-89 -178 -89 -358t89 -366h-56z" />
    <glyph glyph-name="parenright" unicode=")" horiz-adv-x="221" 
d="M96 681q41 -93 62 -184t21 -183q0 -181 -83 -357h-56q89 177 89 357q0 92 -22.5 183t-66.5 184h56z" />
    <glyph glyph-name="asterisk" unicode="*" horiz-adv-x="486" 
d="M286 468l160 7l-133 -89l56 -150l-126 100l-125 -100l56 150l-134 89l161 -7l42 154z" />
    <glyph glyph-name="plus" unicode="+" horiz-adv-x="322" 
d="M194 471v-87h88v-66h-88v-88h-66v88h-88v66h88v87h66z" />
    <glyph glyph-name="comma" unicode="," horiz-adv-x="176" 
d="M40 118h96v-118l-63 -66h-29l52 66h-56v118z" />
    <glyph glyph-name="hyphen" unicode="-" horiz-adv-x="322" 
d="M40 384h242v-66h-210z" />
    <glyph glyph-name="period" unicode="." horiz-adv-x="176" 
d="M40 118h96v-118h-96v118z" />
    <glyph glyph-name="slash" unicode="/" horiz-adv-x="379" 
d="M82 0h-42l254 641h45z" />
    <glyph glyph-name="zero" unicode="0" horiz-adv-x="658" 
d="M106 518v-358q2 -38 42 -38h404v368q0 28 -26 28h-420zM124 0q-82 0 -84 122v519h494q84 0 84 -123v-518h-494z" />
    <glyph glyph-name="one" unicode="1" horiz-adv-x="244" 
d="M40 518v123h80q82 0 84 -123v-518h-66v490q0 28 -26 28h-72z" />
    <glyph glyph-name="two" unicode="2" horiz-adv-x="660" 
d="M538 640q42 0 61 -31t19 -94v-130h-512v-267h512v-119h-578v442h512v45q0 18 -6.5 27t-23.5 9h-482v118h498z" />
    <glyph glyph-name="three" unicode="3" horiz-adv-x="658" 
d="M40 518v123h494q84 0 84 -123v-518h-578v118h512v266h-512v56h512v50q0 28 -26 28h-486z" />
    <glyph glyph-name="four" unicode="4" horiz-adv-x="600" 
d="M195 210h308v304zM479 614q22 27 53 27h28v-641h-57v163h-463z" />
    <glyph glyph-name="five" unicode="5" horiz-adv-x="660" 
d="M40 0v118h482q17 0 23.5 9t6.5 27v230h-512v257h578v-123h-512v-78h512v-315q0 -63 -19 -94t-61 -31h-498z" />
    <glyph glyph-name="six" unicode="6" horiz-adv-x="659" 
d="M162 440h456v-440h-494q-82 0 -84 122v519h579v-123h-513v-358q2 -38 42 -38h404v262h-358z" />
    <glyph glyph-name="seven" unicode="7" horiz-adv-x="638" 
d="M181 0v183q0 35 12 54t39 40l257 211q9 6 9 14q0 7 -6.5 11.5t-15.5 4.5h-436v123h460q48 0 71 -23.5t23 -53.5q0 -23 -12.5 -46t-37.5 -38l-253 -206q-10 -10 -10 -25v-249h-100z" />
    <glyph glyph-name="eight" unicode="8" horiz-adv-x="658" 
d="M106 518v-78h446v50q0 28 -26 28h-420zM552 122v262h-446v-224q2 -38 42 -38h404zM124 0q-82 0 -84 122v519h494q84 0 84 -123v-518h-494z" />
    <glyph glyph-name="nine" unicode="9" horiz-adv-x="659" 
d="M466 384h-425v257h494q82 0 84 -123v-518h-579v122h513v359q-1 37 -42 37h-404v-78h391z" />
    <glyph glyph-name="colon" unicode=":" horiz-adv-x="176" 
d="M40 384h96v-118h-96v118zM40 118h96v-118h-96v118z" />
    <glyph glyph-name="semicolon" unicode=";" horiz-adv-x="176" 
d="M40 384h96v-118h-96v118zM40 118h96v-118l-63 -66h-29l52 66h-56v118z" />
    <glyph glyph-name="less" unicode="&#x3c;" horiz-adv-x="427" 
d="M276 573h111l-257 -211l256 -206h-55l-291 228z" />
    <glyph glyph-name="equal" unicode="=" horiz-adv-x="338" 
d="M40 458h258v-48h-226zM40 348h258v-49h-226z" />
    <glyph glyph-name="greater" unicode="&#x3e;" horiz-adv-x="427" 
d="M151 155h-111l257 211l-255 206h54l291 -228z" />
    <glyph glyph-name="question" unicode="?" horiz-adv-x="638" 
d="M185 168v15q0 28 10 50.5t37 43.5l257 211q9 6 9 14q0 7 -6.5 11.5t-15.5 4.5h-436v123h460q48 0 71 -23.5t23 -53.5q0 -23 -12.5 -46t-37.5 -38l-253 -206q-10 -10 -10 -25v-81h-96zM185 118h96v-118h-96v118z" />
    <glyph glyph-name="at" unicode="@" horiz-adv-x="659" 
d="M211 426v-216q1 -22 25 -22h219v222q0 16 -15 16h-229zM222 114q-49 0 -51 74v312h274q50 0 50 -74v-240h57v396h-404q-40 0 -42 -38v-486h513v-59h-579v519q2 122 84 122h494v-526h-396z" />
    <glyph glyph-name="A" unicode="A" horiz-adv-x="681" 
d="M560 614q12 13 24 20t29 7h28v-641h-57v514l-475 -514h-109z" />
    <glyph glyph-name="B" unicode="B" horiz-adv-x="610" 
d="M206 255l256 233q10 6 10 14q0 7 -6.5 11.5t-15.5 4.5h-328v-518h-82v641h438q44 0 67 -21.5t23 -52.5q0 -21 -11.5 -44t-34.5 -43l-184 -164l151 1q45 0 62.5 -14t17.5 -32q0 -13 -7 -26.5t-17 -21.5l-261 -223h-130l300 255h-248z" />
    <glyph glyph-name="C" unicode="C" horiz-adv-x="598" 
d="M40 641h518v-123h-452v-358q2 -38 42 -38h410v-122h-434q-82 0 -84 122v519z" />
    <glyph glyph-name="D" unicode="D" horiz-adv-x="600" 
d="M122 518v-449l368 397q14 15 14 28q0 11 -11 17.5t-31 6.5h-340zM40 0v641h446q19 0 36.5 -6t31 -17.5t22 -27.5t8.5 -36q0 -23 -12 -49t-39 -55l-410 -450h-83z" />
    <glyph glyph-name="E" unicode="E" horiz-adv-x="600" 
d="M146 440h414v-64h-374zM40 641h520v-123h-424v-398h424v-120h-520v641z" />
    <glyph glyph-name="F" unicode="F" horiz-adv-x="600" 
d="M146 440h414v-64h-374zM40 641h520v-123h-424v-518h-96v641z" />
    <glyph glyph-name="G" unicode="G" horiz-adv-x="659" 
d="M162 440h456v-440h-494q-82 0 -84 122v519h579v-123h-513v-358q2 -38 42 -38h404v262h-358z" />
    <glyph glyph-name="H" unicode="H" horiz-adv-x="637" 
d="M40 0v641h82v-641h-82zM135 440h362v201h100v-641h-100v376h-322z" />
    <glyph glyph-name="I" unicode="I" horiz-adv-x="192" 
d="M40 641h112v-641h-112v641z" />
    <glyph glyph-name="J" unicode="J" horiz-adv-x="492" 
d="M452 641v-519q-2 -122 -84 -122h-328v122h304q40 0 42 38v481h66z" />
    <glyph glyph-name="K" unicode="K" horiz-adv-x="640" 
d="M40 0v641h82v-641h-82zM144 250l432 391h52l-382 -351l382 -290h-145z" />
    <glyph glyph-name="L" unicode="L" horiz-adv-x="600" 
d="M40 641h96v-521h424v-120h-520v641z" />
    <glyph glyph-name="M" unicode="M" horiz-adv-x="722" 
d="M599 641h83v-641h-83v524l-233 -298l-244 306v-532h-82v641h82l267 -324l210 261v63z" />
    <glyph glyph-name="N" unicode="N" horiz-adv-x="661" 
d="M122 492v-492h-82v641h82v-63l399 -487v550h100v-641h-100z" />
    <glyph glyph-name="O" unicode="O" horiz-adv-x="658" 
d="M106 518v-358q2 -38 42 -38h404v368q0 28 -26 28h-420zM124 0q-82 0 -84 122v519h494q84 0 84 -123v-518h-494z" />
    <glyph glyph-name="P" unicode="P" horiz-adv-x="596" 
d="M122 518v-518h-82v641h446q48 0 71 -23.5t23 -53.5q0 -23 -12.5 -46t-37.5 -38l-318 -230h-64l327 238q10 7 10 14t-6.5 11.5t-16.5 4.5h-340z" />
    <glyph glyph-name="Q" unicode="Q" horiz-adv-x="670" 
d="M497 -24h172v-73h-172v73zM106 518v-358q2 -38 42 -38h404v368q0 28 -26 28h-420zM124 0q-82 0 -84 122v519h494q84 0 84 -123v-518h-494z" />
    <glyph glyph-name="R" unicode="R" horiz-adv-x="596" 
d="M122 518v-518h-82v641h446q48 0 71 -23.5t23 -53.5q0 -23 -12.5 -46t-37.5 -38l-284 -202l334 -278h-145l-291 250l331 238q10 7 10 14t-6.5 11.5t-16.5 4.5h-340z" />
    <glyph glyph-name="S" unicode="S" horiz-adv-x="624" 
d="M462 122q22 0 22 16q0 9 -9 15l-381 327q-25 15 -37.5 38t-12.5 46q0 30 23 53.5t71 23.5h444v-123h-420q-23 0 -23 -16q0 -7 10 -14l381 -327q25 -15 37.5 -38t12.5 -46q0 -30 -23 -53.5t-71 -23.5h-437v122h413z" />
    <glyph glyph-name="T" unicode="T" horiz-adv-x="600" 
d="M20 641h560v-123h-235v-518h-83v518h-242v123z" />
    <glyph glyph-name="U" unicode="U" horiz-adv-x="658" 
d="M106 160q2 -38 42 -38h404v519h66v-641h-494q-82 0 -84 122v519h66v-481z" />
    <glyph glyph-name="V" unicode="V" horiz-adv-x="681" 
d="M121 26q-23 -26 -53 -26h-28v641h57v-515l475 515h109z" />
    <glyph glyph-name="W" unicode="W" horiz-adv-x="953" 
d="M393 26q-23 -26 -53 -26h-28v235l-191 -209q-23 -26 -53 -26h-28v641h57v-515l215 220v295h57v-515l475 515h109z" />
    <glyph glyph-name="X" unicode="X" horiz-adv-x="671" 
d="M349 274l-231 -274h-106l280 335l-280 306h61l248 -271l227 271h109l-280 -333l282 -308h-58z" />
    <glyph glyph-name="Y" unicode="Y" horiz-adv-x="659" 
d="M106 343q1 -37 42 -37h404v335h67v-519q-2 -122 -84 -122h-494l66 122h404q40 0 42 38v79h-429q-83 0 -84 123v279h66v-298z" />
    <glyph glyph-name="Z" unicode="Z" horiz-adv-x="640" 
d="M591 122v-122h-453q-48 0 -71 23.5t-23 53.5q0 23 12.5 46t37.5 38l397 327q10 7 10 14t-6.5 11.5t-16.5 4.5h-436v123h460q48 0 71 -23.5t23 -53.5q0 -23 -12.5 -46t-37.5 -38l-397 -327q-10 -7 -10 -15q0 -16 23 -16h429z" />
    <glyph glyph-name="bracketleft" unicode="[" horiz-adv-x="226" 
d="M40 736h146v-58h-80v-668q1 -37 42 -37h38v-59h-62q-83 0 -84 123v699z" />
    <glyph glyph-name="backslash" unicode="\" horiz-adv-x="477" 
d="M40 641h61l336 -641h-59z" />
    <glyph glyph-name="bracketright" unicode="]" horiz-adv-x="205" 
d="M40 678v58h41q82 0 84 -122v-700h-125v59h58v677q0 28 -25 28h-33z" />
    <glyph glyph-name="underscore" unicode="_" horiz-adv-x="485" 
d="M40 -26h405v-32h-405v32z" />
    <glyph glyph-name="grave" unicode="`" horiz-adv-x="235" 
d="M40 719l155 -32v-29l-155 32v29z" />
    <glyph glyph-name="a" unicode="a" 
d="M357 122v84h-251v-46q0 -19 11 -28.5t31 -9.5h209zM40 339v62h299q82 0 84 -123v-278h-299q-41 0 -62.5 30.5t-21.5 91.5v120h317v69q0 28 -26 28h-291z" />
    <glyph glyph-name="b" unicode="b" 
d="M106 339v-179q2 -38 42 -38h209v189q0 28 -26 28h-225zM124 0q-82 0 -84 122v519h66v-240h233q82 0 84 -123v-278h-299z" />
    <glyph glyph-name="c" unicode="c" horiz-adv-x="378" 
d="M40 401h298v-62h-232v-179q2 -38 42 -38h190v-122h-214q-82 0 -84 122v279z" />
    <glyph glyph-name="d" unicode="d" 
d="M106 160q2 -38 42 -38h209v217h-251v-179zM124 0q-82 0 -84 122v279h317v240h66v-641h-299z" />
    <glyph glyph-name="e" unicode="e" 
d="M106 255h251v56q0 28 -26 28h-225v-84zM124 0q-82 0 -84 122v279h299q41 0 62.5 -30.5t21.5 -92.5v-57h-317v-61q0 -19 11 -28.5t31 -9.5h275v-122h-299z" />
    <glyph glyph-name="f" unicode="f" horiz-adv-x="249" 
d="M40 518q1 123 84 123h85v-123h-61q-41 0 -42 -37v-80h98l-32 -62h-66v-339h-66v518z" />
    <glyph glyph-name="g" unicode="g" horiz-adv-x="465" 
d="M106 339v-179q2 -38 42 -38h209v189q0 28 -26 28h-225zM124 0q-82 0 -84 122v279h299q44 0 64 -30.5t20 -92.5v-316q-2 -122 -84 -122h-173v94h149q35 0 42 40v26h-233z" />
    <glyph glyph-name="h" unicode="h" horiz-adv-x="431" 
d="M40 641h66v-240h201q82 0 84 -123v-278h-98v311q0 28 -26 28h-161v-337h-66v639z" />
    <glyph glyph-name="i" unicode="i" horiz-adv-x="162" 
d="M40 464v96h82v-96h-82zM48 401h66v-399h-66v399z" />
    <glyph glyph-name="j" unicode="j" horiz-adv-x="181" 
d="M58 464v96h83v-96h-83zM62 401h67v-439q-2 -122 -84 -122h-85v122h61q39 0 41 38v401z" />
    <glyph glyph-name="k" unicode="k" horiz-adv-x="403" 
d="M40 0v641h82v-418l160 178h52l-147 -168l176 -233h-101l-140 194v-194h-82z" />
    <glyph glyph-name="l" unicode="l" horiz-adv-x="162" 
d="M40 641h82v-639h-82v639z" />
    <glyph glyph-name="m" unicode="m" horiz-adv-x="636" 
d="M40 401h472q82 0 84 -123v-278h-98v311q0 28 -26 28h-121v-339h-98v311q0 28 -26 28h-121v-337h-66v399z" />
    <glyph glyph-name="n" unicode="n" horiz-adv-x="431" 
d="M40 401h267q82 0 84 -123v-278h-98v311q0 28 -26 28h-161v-337h-66v399z" />
    <glyph glyph-name="o" unicode="o" 
d="M106 339v-179q2 -38 42 -38h209v189q0 28 -26 28h-225zM124 0q-82 0 -84 122v279h299q82 0 84 -123v-278h-299z" />
    <glyph glyph-name="p" unicode="p" 
d="M357 122v189q0 28 -26 28h-225v-217h251zM423 0h-317v-160h-66v561h299q82 0 84 -123v-278z" />
    <glyph glyph-name="q" unicode="q" 
d="M106 339v-179q2 -38 42 -38h209v189q0 28 -26 28h-225zM423 -160h-66v160h-233q-82 0 -84 122v279h299q82 0 84 -123v-438z" />
    <glyph glyph-name="r" unicode="r" horiz-adv-x="249" 
d="M40 278q1 123 84 123h85v-123h-61q-41 0 -42 -37v-241h-66v278z" />
    <glyph glyph-name="s" unicode="s" 
d="M106 246h317v-124q0 -61 -21.5 -91.5t-62.5 -30.5h-299v122h275q20 0 31 9.5t11 28.5v34h-316l-1 84q1 123 84 123h299v-62h-291q-26 0 -26 -28v-65z" />
    <glyph glyph-name="t" unicode="t" horiz-adv-x="249" 
d="M124 0q-82 0 -84 122v437h66v-158h103l-32 -62h-71v-179q2 -38 42 -38h61v-122h-85z" />
    <glyph glyph-name="u" unicode="u" horiz-adv-x="447" 
d="M124 0q-82 0 -84 122v279h66v-241q2 -38 42 -38h193v279h66v-401h-283z" />
    <glyph glyph-name="v" unicode="v" horiz-adv-x="462" 
d="M40 0v401h57v-275l253 275h112l-341 -375q-23 -26 -53 -26h-28z" />
    <glyph glyph-name="w" unicode="w" horiz-adv-x="670" 
d="M248 0v170l-127 -144q-23 -26 -53 -26h-28v401h57v-275l151 155v120h57v-275l253 275h112l-341 -375q-23 -26 -53 -26h-28z" />
    <glyph glyph-name="x" unicode="x" horiz-adv-x="523" 
d="M304 188l172 -188h-58l-142 154l-130 -154h-106l179 215l-169 186h60l138 -151l126 151h109z" />
    <glyph glyph-name="y" unicode="y" 
d="M106 160q2 -38 42 -38h209v279h66v-439q-2 -122 -84 -122h-173v94h149q35 0 42 40v26h-233q-82 0 -84 122v279h66v-241z" />
    <glyph glyph-name="z" unicode="z" horiz-adv-x="414" 
d="M134 122h240v-122h-334v90l258 249h-258v62h334v-46z" />
    <glyph glyph-name="braceleft" unicode="{" horiz-adv-x="500" 
 />
    <glyph glyph-name="bar" unicode="|" horiz-adv-x="133" 
d="M36 678h53v-872h-53v872z" />
    <glyph glyph-name="braceright" unicode="}" horiz-adv-x="500" 
 />
    <glyph glyph-name="asciitilde" unicode="~" horiz-adv-x="500" 
d="M282 453q-32 11 -45.5 19.5t-25.5 8.5q-18 0 -43 -34l-38 32q14 29 33 42t40 13h2q6 0 16.5 -4t22 -9t22.5 -9t18 -4h3q20 0 35 32l33 -38q-8 -27 -28.5 -38t-44.5 -11z" />
    <glyph glyph-name="cent" unicode="&#xa2;" horiz-adv-x="378" 
d="M40 0zM40 506h298v-62h-232v-179q2 -38 42 -38h190v-122h-214q-82 0 -84 122v279zM199.98 600.491h24.999v-608.974h-24.999v608.974z" />
    <glyph glyph-name="sterling" unicode="&#xa3;" horiz-adv-x="438" 
d="M85 401h63v117q0 62 21.5 92.5t62.5 30.5h166v-123h-142q-41 0 -42 -37v-80h98l-32 -62h-66v-219h184v-120h-358v120h108v219h-95z" />
    <glyph glyph-name="yen" unicode="&#xa5;" horiz-adv-x="671" 
d="M292 271v64l-280 306h61l248 -271l227 271h109l-280 -333v-37h83v-48h-83v-62h83v-49h-82v-112h-86v112h-58l-32 49h90v62h-58l-32 48h90z" />
    <glyph glyph-name="brokenbar" unicode="&#xa6;" horiz-adv-x="133" 
d="M89 678v-335h-53v335h53zM36 -194v338h53v-338h-53z" />
    <glyph glyph-name="section" unicode="&#xa7;" 
d="M331 274q25 6 26 36v77h-225q-26 0 -26 -28v-85h225zM423 352q0 -63 -25 -78h25v-152q0 -61 -21.5 -91.5t-62.5 -30.5h-300v122h276q20 0 31 9.5t11 28.5v62h-317v104q0 41 29 68h-29v144q0 52 21.5 77.5t62.5 25.5h299v-62h-291q-26 0 -26 -28v-104q10 2 18 2h299v-97z
" />
    <glyph glyph-name="dieresis" unicode="&#xa8;" horiz-adv-x="298" 
d="M176 741h82v-79h-82v79zM40 741h82v-79h-82v79z" />
    <glyph glyph-name="copyright" unicode="&#xa9;" horiz-adv-x="658" 
d="M86 578v-468q1 -48 42 -48h444v458q0 58 -46 58h-440zM124 0q-82 0 -84 122v519h494q84 0 84 -123v-518h-494zM172 517h298v-62h-232v-179q2 -38 42 -38h190v-122h-214q-82 0 -84 122v279z" />
    <glyph glyph-name="guillemotleft" unicode="&#xab;" horiz-adv-x="332" 
d="M138 573h55l-128 -211l128 -206h-28l-145 228zM258 573h55l-128 -211l128 -206h-28l-145 228z" />
    <glyph glyph-name="registered" unicode="&#xae;" horiz-adv-x="520" 
d="M68 594v-353q1 -36 31 -36h334v345q0 44 -34 44h-331zM96 159q-62 0 -63 91v391h372q63 0 63 -93v-389h-372zM159 495v-258h-41v319h222q24 0 35.5 -11.5t11.5 -26.5q0 -25 -25 -42l-141 -101l166 -138h-72l-145 124l165 119q4 3 4 7q0 8 -11 8h-169z" />
    <glyph glyph-name="macron" unicode="&#xaf;" horiz-adv-x="343" 
d="M40 731h269v-59h-269v59z" />
    <glyph glyph-name="degree" unicode="&#xb0;" horiz-adv-x="391" 
d="M61 471q0 -27 10.5 -51t28 -41.5t41.5 -28t51 -10.5t51 10.5t41.5 28t28 41.5t10.5 51t-10.5 51t-28 41.5t-41.5 28t-51 10.5t-51 -10.5t-41.5 -28t-28 -41.5t-10.5 -51zM23 470q0 35 13 66t36 54t54 36.5t66 13.5t66 -13.5t54 -36.5t36.5 -54t13.5 -66t-13.5 -66
t-36.5 -54t-54 -36t-66 -13t-66 13t-54 36t-36 54t-13 66z" />
    <glyph glyph-name="twosuperior" unicode="&#xb2;" horiz-adv-x="417" 
d="M311 640q57 0 57 -82v-91h-243v-146h243v-89h-299v286h242v22q0 10 -10 10h-232v90h242z" />
    <glyph glyph-name="threesuperior" unicode="&#xb3;" horiz-adv-x="391" 
d="M65 550v91h198q59 0 59 -83v-325h-257v89h202v146h-202v51h202v21q0 10 -9 10h-193z" />
    <glyph glyph-name="acute" unicode="&#xb4;" horiz-adv-x="235" 
d="M195 690l-155 -32v29l155 32v-29z" />
    <glyph glyph-name="paragraph" unicode="&#xb6;" horiz-adv-x="460" 
d="M32 583l64 58h330v-641h-50v453h-147v-453h-82v453h-51l-64 67v63z" />
    <glyph glyph-name="cedilla" unicode="&#xb8;" horiz-adv-x="195" 
d="M170 -16v-143h-134v26h110v62h-110v77h54v-22h80z" />
    <glyph glyph-name="onesuperior" unicode="&#xb9;" horiz-adv-x="225" 
d="M48 551v91h57q57 0 59 -83v-325h-57v307q0 10 -8 10h-51z" />
    <glyph glyph-name="guillemotright" unicode="&#xbb;" horiz-adv-x="322" 
d="M75 155h-55l128 211l-127 206h27l145 -228zM195 155h-55l128 211l-127 206h27l145 -228z" />
    <glyph glyph-name="onequarter" unicode="&#xbc;" horiz-adv-x="762" 
d="M635 144v158l-161 -158h161zM86 551v91h57q57 0 59 -83v-325h-57v307q0 10 -8 10h-51zM621 389v-1q15 20 38 20h26v-408h-50v100h-295zM154 0h-42l474 641h45z" />
    <glyph glyph-name="onehalf" unicode="&#xbd;" horiz-adv-x="913" 
d="M78 550v91h57q57 0 59 -83v-325h-57v307q0 10 -8 10h-51zM793 408q57 0 57 -82v-91h-243v-146h243v-89h-299v286h242v22q0 10 -10 10h-232v90h242zM170 0h-42l474 641h45z" />
    <glyph glyph-name="threequarters" unicode="&#xbe;" horiz-adv-x="933" 
d="M818 144v158l-161 -158h161zM804 389v-1q15 20 38 20h26v-408h-50v100h-295zM65 550v91h198q59 0 59 -83v-325h-257v89h202v146h-202v51h202v21q0 10 -9 10h-193zM277 0h-42l474 641h45z" />
    <glyph glyph-name="Agrave" unicode="&#xc0;" horiz-adv-x="681" 
d="M0 0zM560 614q12 13 24 20t29 7h28v-641h-57v514l-475 -514h-109zM513 719l155 -32v-29l-155 32v29z" />
    <glyph glyph-name="Aacute" unicode="&#xc1;" horiz-adv-x="681" 
d="M0 0zM560 614q12 13 24 20t29 7h28v-641h-57v514l-475 -514h-109zM680 690l-155 -32v29l155 32v-29z" />
    <glyph glyph-name="Acircumflex" unicode="&#xc2;" horiz-adv-x="681" 
d="M0 0zM560 614q12 13 24 20t29 7h28v-641h-57v514l-475 -514h-109zM707 694v-41l-99 32l-99 -32v41l99 32z" />
    <glyph glyph-name="Atilde" unicode="&#xc3;" horiz-adv-x="681" 
d="M0 0zM560 614q12 13 24 20t29 7h28v-641h-57v514l-475 -514h-109zM643 670q-23 8 -33.5 14t-18.5 6h-1q-13 0 -32 -25l-28 24q22 41 55 41h1q4 0 12 -3t16.5 -6.5t17 -6.5t13.5 -4h2q15 0 26 24l25 -28q-6 -20 -21.5 -28t-33.5 -8z" />
    <glyph glyph-name="Adieresis" unicode="&#xc4;" horiz-adv-x="681" 
d="M0 0zM560 614q12 13 24 20t29 7h28v-641h-57v514l-475 -514h-109zM641 741h82v-79h-82v79zM505 741h82v-79h-82v79z" />
    <glyph glyph-name="Aring" unicode="&#xc5;" horiz-adv-x="681" 
d="M0 0zM560 614q12 13 24 20t29 7h28v-641h-57v514l-475 -514h-109zM641 683v84h-85v-84h85zM535 784h151v-130h-151v130z" />
    <glyph glyph-name="AE" unicode="&#xc6;" horiz-adv-x="994" 
d="M686 440h268v-64h-228zM624 514l-475 -514h-109l560 614q12 13 24 20t29 7h301v-123h-278v-398h278v-120h-330v514z" />
    <glyph glyph-name="Ccedilla" unicode="&#xc7;" horiz-adv-x="598" 
d="M40 0zM40 641h518v-123h-452v-358q2 -38 42 -38h410v-122h-434q-82 0 -84 122v519zM377 -16v-143h-134v26h110v62h-110v77h54v-22h80z" />
    <glyph glyph-name="Egrave" unicode="&#xc8;" horiz-adv-x="600" 
d="M40 0zM146 440h414v-64h-374zM40 641h520v-123h-424v-398h424v-120h-520v641zM227 719l155 -32v-29l-155 32v29z" />
    <glyph glyph-name="Eacute" unicode="&#xc9;" horiz-adv-x="600" 
d="M40 0zM146 440h414v-64h-374zM40 641h520v-123h-424v-398h424v-120h-520v641zM389 690l-155 -32v29l155 32v-29z" />
    <glyph glyph-name="Ecircumflex" unicode="&#xca;" horiz-adv-x="600" 
d="M40 0zM146 440h414v-64h-374zM40 641h520v-123h-424v-398h424v-120h-520v641zM405 694v-41l-99 32l-99 -32v41l99 32z" />
    <glyph glyph-name="Edieresis" unicode="&#xcb;" horiz-adv-x="600" 
d="M40 0zM146 440h414v-64h-374zM40 641h520v-123h-424v-398h424v-120h-520v641zM330 741h82v-79h-82v79zM194 741h82v-79h-82v79z" />
    <glyph glyph-name="Igrave" unicode="&#xcc;" horiz-adv-x="192" 
d="M22 0zM40 641h112v-641h-112v641zM22 719l155 -32v-29l-155 32v29z" />
    <glyph glyph-name="Iacute" unicode="&#xcd;" horiz-adv-x="192" 
d="M28 0zM40 641h112v-641h-112v641zM183 690l-155 -32v29l155 32v-29z" />
    <glyph glyph-name="Icircumflex" unicode="&#xce;" horiz-adv-x="192" 
d="M4 0zM40 641h112v-641h-112v641zM202 694v-41l-99 32l-99 -32v41l99 32z" />
    <glyph glyph-name="Idieresis" unicode="&#xcf;" horiz-adv-x="192" 
d="M0 0zM40 641h112v-641h-112v641zM128 741h82v-79h-82v79zM-8 741h82v-79h-82v79z" />
    <glyph glyph-name="Eth" unicode="&#xd0;" horiz-adv-x="600" 
d="M0 0zM122 518v-449l368 397q14 15 14 28q0 11 -11 17.5t-31 6.5h-340zM40 0v641h446q19 0 36.5 -6t31 -17.5t22 -27.5t8.5 -36q0 -23 -12 -49t-39 -55l-410 -450h-83zM-31 384h242v-66h-210z" />
    <glyph glyph-name="Ntilde" unicode="&#xd1;" horiz-adv-x="661" 
d="M40 0zM122 492v-492h-82v641h82v-63l399 -487v550h100v-641h-100zM350 670q-23 8 -33.5 14t-18.5 6h-1q-13 0 -32 -25l-28 24q22 41 55 41h1q4 0 12 -3t16.5 -6.5t17 -6.5t13.5 -4h2q15 0 26 24l25 -28q-6 -20 -21.5 -28t-33.5 -8z" />
    <glyph glyph-name="Ograve" unicode="&#xd2;" horiz-adv-x="658" 
d="M40 0zM106 518v-358q2 -38 42 -38h404v368q0 28 -26 28h-420zM124 0q-82 0 -84 122v519h494q84 0 84 -123v-518h-494zM247 719l155 -32v-29l-155 32v29z" />
    <glyph glyph-name="Oacute" unicode="&#xd3;" horiz-adv-x="658" 
d="M40 0zM106 518v-358q2 -38 42 -38h404v368q0 28 -26 28h-420zM124 0q-82 0 -84 122v519h494q84 0 84 -123v-518h-494zM390 690l-155 -32v29l155 32v-29z" />
    <glyph glyph-name="Ocircumflex" unicode="&#xd4;" horiz-adv-x="658" 
d="M40 0zM106 518v-358q2 -38 42 -38h404v368q0 28 -26 28h-420zM124 0q-82 0 -84 122v519h494q84 0 84 -123v-518h-494zM409 694v-41l-99 32l-99 -32v41l99 32z" />
    <glyph glyph-name="Otilde" unicode="&#xd5;" horiz-adv-x="658" 
d="M40 0zM106 518v-358q2 -38 42 -38h404v368q0 28 -26 28h-420zM124 0q-82 0 -84 122v519h494q84 0 84 -123v-518h-494zM347 670q-23 8 -33.5 14t-18.5 6h-1q-13 0 -32 -25l-28 24q22 41 55 41h1q4 0 12 -3t16.5 -6.5t17 -6.5t13.5 -4h2q15 0 26 24l25 -28
q-6 -20 -21.5 -28t-33.5 -8z" />
    <glyph glyph-name="Odieresis" unicode="&#xd6;" horiz-adv-x="658" 
d="M40 0zM106 518v-358q2 -38 42 -38h404v368q0 28 -26 28h-420zM124 0q-82 0 -84 122v519h494q84 0 84 -123v-518h-494zM350 741h82v-79h-82v79zM214 741h82v-79h-82v79z" />
    <glyph glyph-name="Oslash" unicode="&#xd8;" horiz-adv-x="658" 
d="M40 0zM106 518v-358q2 -38 42 -38h404v368q0 28 -26 28h-420zM124 0q-82 0 -84 122v519h494q84 0 84 -123v-518h-494zM215 0h-42l254 641h45z" />
    <glyph glyph-name="Ugrave" unicode="&#xd9;" horiz-adv-x="658" 
d="M40 0zM106 160q2 -38 42 -38h404v519h66v-641h-494q-82 0 -84 122v519h66v-481zM244 719l155 -32v-29l-155 32v29z" />
    <glyph glyph-name="Uacute" unicode="&#xda;" horiz-adv-x="658" 
d="M40 0zM106 160q2 -38 42 -38h404v519h66v-641h-494q-82 0 -84 122v519h66v-481zM405 690l-155 -32v29l155 32v-29z" />
    <glyph glyph-name="Ucircumflex" unicode="&#xdb;" horiz-adv-x="658" 
d="M40 0zM106 160q2 -38 42 -38h404v519h66v-641h-494q-82 0 -84 122v519h66v-481zM408 694v-41l-99 32l-99 -32v41l99 32z" />
    <glyph glyph-name="Udieresis" unicode="&#xdc;" horiz-adv-x="658" 
d="M40 0zM106 160q2 -38 42 -38h404v519h66v-641h-494q-82 0 -84 122v519h66v-481zM344 741h82v-79h-82v79zM208 741h82v-79h-82v79z" />
    <glyph glyph-name="Yacute" unicode="&#xdd;" horiz-adv-x="659" 
d="M40 0zM106 343q1 -37 42 -37h404v335h67v-519q-2 -122 -84 -122h-494l66 122h404q40 0 42 38v79h-429q-83 0 -84 123v279h66v-298zM409 690l-155 -32v29l155 32v-29z" />
    <glyph glyph-name="Thorn" unicode="&#xde;" 
d="M357 232v189q0 28 -26 28h-224v-217h250zM107 0h-67v641h67v-130h232q82 0 84 -123v-278h-316v-110z" />
    <glyph glyph-name="germandbls" unicode="&#xdf;" horiz-adv-x="658" 
d="M106 518v-518h-66v641h494q84 0 84 -123v-37q0 -55 -43 -67q43 -4 43 -61v-353h-454l80 122h308v228q-1 32 -31 34h-357l32 56h323q18 1 25.5 8t7.5 21v21q0 28 -26 28h-420z" />
    <glyph glyph-name="agrave" unicode="&#xe0;" 
d="M40 0zM357 122v84h-251v-46q0 -19 11 -28.5t31 -9.5h209zM40 339v62h299q82 0 84 -123v-278h-299q-41 0 -62.5 30.5t-21.5 91.5v120h317v69q0 28 -26 28h-291zM140 482l155 -32v-29l-155 32v29z" />
    <glyph glyph-name="aacute" unicode="&#xe1;" 
d="M40 0zM357 122v84h-251v-46q0 -19 11 -28.5t31 -9.5h209zM40 339v62h299q82 0 84 -123v-278h-299q-41 0 -62.5 30.5t-21.5 91.5v120h317v69q0 28 -26 28h-291zM308 453l-155 -32v29l155 32v-29z" />
    <glyph glyph-name="acircumflex" unicode="&#xe2;" 
d="M40 0zM357 122v84h-251v-46q0 -19 11 -28.5t31 -9.5h209zM40 339v62h299q82 0 84 -123v-278h-299q-41 0 -62.5 30.5t-21.5 91.5v120h317v69q0 28 -26 28h-291zM340 457v-41l-99 32l-99 -32v41l99 32z" />
    <glyph glyph-name="atilde" unicode="&#xe3;" 
d="M40 0zM357 122v84h-251v-46q0 -19 11 -28.5t31 -9.5h209zM40 339v62h299q82 0 84 -123v-278h-299q-41 0 -62.5 30.5t-21.5 91.5v120h317v69q0 28 -26 28h-291zM256 433q-23 8 -33.5 14t-18.5 6h-1q-13 0 -32 -25l-28 24q22 41 55 41h1q4 0 12 -3t16.5 -6.5t17 -6.5
t13.5 -4h2q15 0 26 24l25 -28q-6 -20 -21.5 -28t-33.5 -8z" />
    <glyph glyph-name="adieresis" unicode="&#xe4;" 
d="M40 0zM357 122v84h-251v-46q0 -19 11 -28.5t31 -9.5h209zM40 339v62h299q82 0 84 -123v-278h-299q-41 0 -62.5 30.5t-21.5 91.5v120h317v69q0 28 -26 28h-291zM257 504h82v-79h-82v79zM121 504h82v-79h-82v79z" />
    <glyph glyph-name="aring" unicode="&#xe5;" 
d="M40 0zM357 122v84h-251v-46q0 -19 11 -28.5t31 -9.5h209zM40 339v62h299q82 0 84 -123v-278h-299q-41 0 -62.5 30.5t-21.5 91.5v120h317v69q0 28 -26 28h-291zM252 446v84h-85v-84h85zM146 547h151v-130h-151v130z" />
    <glyph glyph-name="ae" unicode="&#xe6;" horiz-adv-x="614" 
d="M286 122v84h-180v-46q0 -19 11 -28.5t31 -9.5h138zM326 255h181v56q0 28 -25 28h-156v-84zM124 0q-41 0 -62.5 30.5t-21.5 91.5v120h246v69q0 28 -25 28h-221v62h450q41 0 62.5 -30.5t21.5 -92.5v-57h-248v-61q0 -19 11 -28.5t31 -9.5h206v-122h-450z" />
    <glyph glyph-name="ccedilla" unicode="&#xe7;" horiz-adv-x="378" 
d="M40 0zM40 401h298v-62h-232v-179q2 -38 42 -38h190v-122h-214q-82 0 -84 122v279zM285 -16v-143h-134v26h110v62h-110v77h54v-22h80z" />
    <glyph glyph-name="egrave" unicode="&#xe8;" 
d="M40 0zM106 255h251v56q0 28 -26 28h-225v-84zM124 0q-82 0 -84 122v279h299q41 0 62.5 -30.5t21.5 -92.5v-57h-317v-61q0 -19 11 -28.5t31 -9.5h275v-122h-299zM150 482l155 -32v-29l-155 32v29z" />
    <glyph glyph-name="eacute" unicode="&#xe9;" 
d="M40 0zM106 255h251v56q0 28 -26 28h-225v-84zM124 0q-82 0 -84 122v279h299q41 0 62.5 -30.5t21.5 -92.5v-57h-317v-61q0 -19 11 -28.5t31 -9.5h275v-122h-299zM302 453l-155 -32v29l155 32v-29z" />
    <glyph glyph-name="ecircumflex" unicode="&#xea;" 
d="M40 0zM106 255h251v56q0 28 -26 28h-225v-84zM124 0q-82 0 -84 122v279h299q41 0 62.5 -30.5t21.5 -92.5v-57h-317v-61q0 -19 11 -28.5t31 -9.5h275v-122h-299zM329 457v-41l-99 32l-99 -32v41l99 32z" />
    <glyph glyph-name="edieresis" unicode="&#xeb;" 
d="M40 0zM106 255h251v56q0 28 -26 28h-225v-84zM124 0q-82 0 -84 122v279h299q41 0 62.5 -30.5t21.5 -92.5v-57h-317v-61q0 -19 11 -28.5t31 -9.5h275v-122h-299zM261 504h82v-79h-82v79zM125 504h82v-79h-82v79z" />
    <glyph glyph-name="igrave" unicode="&#xec;" horiz-adv-x="162" 
d="M5 2zM48 401h66v-399h-66v399zM5 482l155 -32v-29l-155 32v29z" />
    <glyph glyph-name="iacute" unicode="&#xed;" horiz-adv-x="162" 
d="M7 2zM48 401h66v-399h-66v399zM162 453l-155 -32v29l155 32v-29z" />
    <glyph glyph-name="icircumflex" unicode="&#xee;" horiz-adv-x="162" 
d="M0 2zM48 401h66v-399h-66v399zM183 457v-41l-99 32l-99 -32v41l99 32z" />
    <glyph glyph-name="idieresis" unicode="&#xef;" horiz-adv-x="162" 
d="M0 2zM48 401h66v-399h-66v399zM110 504h82v-79h-82v79zM-26 504h82v-79h-82v79z" />
    <glyph glyph-name="eth" unicode="&#xf0;" horiz-adv-x="659" 
d="M424 459h140v59h-513v123h579v-182h36v-66h-36v-271q-2 -122 -84 -122h-494v296h456l-32 -56h-358v-118h404q40 0 42 38v233h-108z" />
    <glyph glyph-name="ntilde" unicode="&#xf1;" horiz-adv-x="431" 
d="M40 0zM40 401h267q82 0 84 -123v-278h-98v311q0 28 -26 28h-161v-337h-66v399zM235 433q-23 8 -33.5 14t-18.5 6h-1q-13 0 -32 -25l-28 24q22 41 55 41h1q4 0 12 -3t16.5 -6.5t17 -6.5t13.5 -4h2q15 0 26 24l25 -28q-6 -20 -21.5 -28t-33.5 -8z" />
    <glyph glyph-name="ograve" unicode="&#xf2;" 
d="M40 0zM106 339v-179q2 -38 42 -38h209v189q0 28 -26 28h-225zM124 0q-82 0 -84 122v279h299q82 0 84 -123v-278h-299zM151 482l155 -32v-29l-155 32v29z" />
    <glyph glyph-name="oacute" unicode="&#xf3;" 
d="M40 0zM106 339v-179q2 -38 42 -38h209v189q0 28 -26 28h-225zM124 0q-82 0 -84 122v279h299q82 0 84 -123v-278h-299zM306 453l-155 -32v29l155 32v-29z" />
    <glyph glyph-name="ocircumflex" unicode="&#xf4;" 
d="M40 0zM106 339v-179q2 -38 42 -38h209v189q0 28 -26 28h-225zM124 0q-82 0 -84 122v279h299q82 0 84 -123v-278h-299zM325 457v-41l-99 32l-99 -32v41l99 32z" />
    <glyph glyph-name="otilde" unicode="&#xf5;" 
d="M40 0zM106 339v-179q2 -38 42 -38h209v189q0 28 -26 28h-225zM124 0q-82 0 -84 122v279h299q82 0 84 -123v-278h-299zM255 433q-23 8 -33.5 14t-18.5 6h-1q-13 0 -32 -25l-28 24q22 41 55 41h1q4 0 12 -3t16.5 -6.5t17 -6.5t13.5 -4h2q15 0 26 24l25 -28
q-6 -20 -21.5 -28t-33.5 -8z" />
    <glyph glyph-name="odieresis" unicode="&#xf6;" 
d="M40 0zM106 339v-179q2 -38 42 -38h209v189q0 28 -26 28h-225zM124 0q-82 0 -84 122v279h299q82 0 84 -123v-278h-299zM253 504h82v-79h-82v79zM117 504h82v-79h-82v79z" />
    <glyph glyph-name="oslash" unicode="&#xf8;" 
d="M220 122h137v189q0 28 -26 28h-24zM106 160q2 -38 42 -38h35l86 217h-163v-179zM124 0q-82 0 -84 122v279h299q82 0 84 -123v-278h-299z" />
    <glyph glyph-name="ugrave" unicode="&#xf9;" horiz-adv-x="447" 
d="M40 0zM124 0q-82 0 -84 122v279h66v-241q2 -38 42 -38h193v279h66v-401h-283zM147 482l155 -32v-29l-155 32v29z" />
    <glyph glyph-name="uacute" unicode="&#xfa;" horiz-adv-x="447" 
d="M40 0zM124 0q-82 0 -84 122v279h66v-241q2 -38 42 -38h193v279h66v-401h-283zM300 453l-155 -32v29l155 32v-29z" />
    <glyph glyph-name="ucircumflex" unicode="&#xfb;" horiz-adv-x="447" 
d="M40 0zM124 0q-82 0 -84 122v279h66v-241q2 -38 42 -38h193v279h66v-401h-283zM321 457v-41l-99 32l-99 -32v41l99 32z" />
    <glyph glyph-name="udieresis" unicode="&#xfc;" horiz-adv-x="447" 
d="M40 0zM124 0q-82 0 -84 122v279h66v-241q2 -38 42 -38h193v279h66v-401h-283zM253 504h82v-79h-82v79zM117 504h82v-79h-82v79z" />
    <glyph glyph-name="yacute" unicode="&#xfd;" 
d="M40 0zM106 160q2 -38 42 -38h209v279h66v-439q-2 -122 -84 -122h-173v94h149q35 0 42 40v26h-233q-82 0 -84 122v279h66v-241zM312 453l-155 -32v29l155 32v-29z" />
    <glyph glyph-name="thorn" unicode="&#xfe;" 
d="M40 0zM357 232v189q0 28 -26 28h-224v-217h250zM107 0h-67v641h67v-130h232q82 0 84 -123v-278h-316v-110z" />
    <glyph glyph-name="ydieresis" unicode="&#xff;" 
d="M40 0zM106 160q2 -38 42 -38h209v279h66v-439q-2 -122 -84 -122h-173v94h149q35 0 42 40v26h-233q-82 0 -84 122v279h66v-241zM255 504h82v-79h-82v79zM119 504h82v-79h-82v79z" />
    <glyph glyph-name="Amacron" unicode="&#x100;" horiz-adv-x="681" 
d="M0 0zM560 614q12 13 24 20t29 7h28v-641h-57v514l-475 -514h-109zM477 731h269v-59h-269v59z" />
    <glyph glyph-name="amacron" unicode="&#x101;" 
d="M40 0zM357 122v84h-251v-46q0 -19 11 -28.5t31 -9.5h209zM40 339v62h299q82 0 84 -123v-278h-299q-41 0 -62.5 30.5t-21.5 91.5v120h317v69q0 28 -26 28h-291zM86 494h269v-59h-269v59z" />
    <glyph glyph-name="Abreve" unicode="&#x102;" horiz-adv-x="681" 
d="M0 0zM560 614q12 13 24 20t29 7h28v-641h-57v514l-475 -514h-109zM510 722q56 -32 98 -32q43 0 104 32v-43q-60 -29 -102 -29t-100 29v43z" />
    <glyph glyph-name="abreve" unicode="&#x103;" 
d="M40 0zM357 122v84h-251v-46q0 -19 11 -28.5t31 -9.5h209zM40 339v62h299q82 0 84 -123v-278h-299q-41 0 -62.5 30.5t-21.5 91.5v120h317v69q0 28 -26 28h-291zM128 485q56 -32 98 -32q43 0 104 32v-43q-60 -29 -102 -29t-100 29v43z" />
    <glyph glyph-name="Aogonek" unicode="&#x104;" horiz-adv-x="681" 
d="M0 0zM560 614q12 13 24 20t29 7h28v-641h-57v514l-475 -514h-109zM584 -16v22h54v-77h-110v-62h110v-26h-134v143h80z" />
    <glyph glyph-name="aogonek" unicode="&#x105;" 
d="M40 0zM357 122v84h-251v-46q0 -19 11 -28.5t31 -9.5h209zM40 339v62h299q82 0 84 -123v-278h-299q-41 0 -62.5 30.5t-21.5 91.5v120h317v69q0 28 -26 28h-291zM369 -16v22h54v-77h-110v-62h110v-26h-134v143h80z" />
    <glyph glyph-name="Cacute" unicode="&#x106;" horiz-adv-x="598" 
d="M40 0zM40 641h518v-123h-452v-358q2 -38 42 -38h410v-122h-434q-82 0 -84 122v519zM380 690l-155 -32v29l155 32v-29z" />
    <glyph glyph-name="cacute" unicode="&#x107;" horiz-adv-x="378" 
d="M40 0zM40 401h298v-62h-232v-179q2 -38 42 -38h190v-122h-214q-82 0 -84 122v279zM270 453l-155 -32v29l155 32v-29z" />
    <glyph glyph-name="Ccaron" unicode="&#x10c;" horiz-adv-x="598" 
d="M40 0zM40 641h518v-123h-452v-358q2 -38 42 -38h410v-122h-434q-82 0 -84 122v519zM206 684v41l99 -32l99 32v-41l-99 -32z" />
    <glyph glyph-name="ccaron" unicode="&#x10d;" horiz-adv-x="378" 
d="M40 0zM40 401h298v-62h-232v-179q2 -38 42 -38h190v-122h-214q-82 0 -84 122v279zM104 447v41l99 -32l99 32v-41l-99 -32z" />
    <glyph glyph-name="Dcaron" unicode="&#x10e;" horiz-adv-x="600" 
d="M40 0zM122 518v-449l368 397q14 15 14 28q0 11 -11 17.5t-31 6.5h-340zM40 0v641h446q19 0 36.5 -6t31 -17.5t22 -27.5t8.5 -36q0 -23 -12 -49t-39 -55l-410 -450h-83zM171 684v41l99 -32l99 32v-41l-99 -32z" />
    <glyph glyph-name="dcaron" unicode="&#x10f;" horiz-adv-x="524" 
d="M40 0zM106 160q2 -38 42 -38h209v217h-251v-179zM124 0q-82 0 -84 122v279h317v240h66v-641h-299zM434 642h96v-118l-63 -66h-29l52 66h-56v118z" />
    <glyph glyph-name="Dmacron" unicode="&#x110;" horiz-adv-x="600" 
d="M0 0zM122 518v-449l368 397q14 15 14 28q0 11 -11 17.5t-31 6.5h-340zM40 0v641h446q19 0 36.5 -6t31 -17.5t22 -27.5t8.5 -36q0 -23 -12 -49t-39 -55l-410 -450h-83zM-37 384h242v-66h-210z" />
    <glyph glyph-name="dmacron" unicode="&#x111;" 
d="M40 0zM106 160q2 -38 42 -38h209v217h-251v-179zM124 0q-82 0 -84 122v279h317v240h66v-641h-299zM237 553h242v-66h-210z" />
    <glyph glyph-name="Emacron" unicode="&#x112;" horiz-adv-x="600" 
d="M40 0zM146 440h414v-64h-374zM40 641h520v-123h-424v-398h424v-120h-520v641zM163 731h269v-59h-269v59z" />
    <glyph glyph-name="emacron" unicode="&#x113;" 
d="M40 0zM106 255h251v56q0 28 -26 28h-225v-84zM124 0q-82 0 -84 122v279h299q41 0 62.5 -30.5t21.5 -92.5v-57h-317v-61q0 -19 11 -28.5t31 -9.5h275v-122h-299zM86 494h269v-59h-269v59z" />
    <glyph glyph-name="Edotaccent" unicode="&#x116;" horiz-adv-x="600" 
d="M40 0zM146 440h414v-64h-374zM40 641h520v-123h-424v-398h424v-120h-520v641zM264 741h82v-79h-82v79z" />
    <glyph glyph-name="edotaccent" unicode="&#x117;" 
d="M40 0zM106 255h251v56q0 28 -26 28h-225v-84zM124 0q-82 0 -84 122v279h299q41 0 62.5 -30.5t21.5 -92.5v-57h-317v-61q0 -19 11 -28.5t31 -9.5h275v-122h-299zM191 504h82v-79h-82v79z" />
    <glyph glyph-name="Eogonek" unicode="&#x118;" horiz-adv-x="600" 
d="M40 0zM146 440h414v-64h-374zM40 641h520v-123h-424v-398h424v-120h-520v641zM506 -16v22h54v-77h-110v-62h110v-26h-134v143h80z" />
    <glyph glyph-name="eogonek" unicode="&#x119;" 
d="M40 0zM106 255h251v56q0 28 -26 28h-225v-84zM124 0q-82 0 -84 122v279h299q41 0 62.5 -30.5t21.5 -92.5v-57h-317v-61q0 -19 11 -28.5t31 -9.5h275v-122h-299zM369 -16v22h54v-77h-110v-62h110v-26h-134v143h80z" />
    <glyph glyph-name="Ecaron" unicode="&#x11a;" horiz-adv-x="600" 
d="M40 0zM146 440h414v-64h-374zM40 641h520v-123h-424v-398h424v-120h-520v641zM199 684v41l99 -32l99 32v-41l-99 -32z" />
    <glyph glyph-name="ecaron" unicode="&#x11b;" 
d="M40 0zM106 255h251v56q0 28 -26 28h-225v-84zM124 0q-82 0 -84 122v279h299q41 0 62.5 -30.5t21.5 -92.5v-57h-317v-61q0 -19 11 -28.5t31 -9.5h275v-122h-299zM129 447v41l99 -32l99 32v-41l-99 -32z" />
    <glyph glyph-name="Gbreve" unicode="&#x11e;" horiz-adv-x="659" 
d="M40 0zM162 440h456v-440h-494q-82 0 -84 122v519h579v-123h-513v-358q2 -38 42 -38h404v262h-358zM232 722q56 -32 98 -32q43 0 104 32v-43q-60 -29 -102 -29t-100 29v43z" />
    <glyph glyph-name="gbreve" unicode="&#x11f;" horiz-adv-x="465" 
d="M40 0zM106 339v-179q2 -38 42 -38h209v189q0 28 -26 28h-225zM124 0q-82 0 -84 122v279h299q44 0 64 -30.5t20 -92.5v-316q-2 -122 -84 -122h-173v94h149q35 0 42 40v26h-233zM127 485q56 -32 98 -32q43 0 104 32v-43q-60 -29 -102 -29t-100 29v43z" />
    <glyph glyph-name="Gcommaaccent" unicode="&#x122;" horiz-adv-x="659" 
d="M40 0zM162 440h456v-440h-494q-82 0 -84 122v519h579v-123h-513v-358q2 -38 42 -38h404v262h-358zM402 -16v-143h-134v26h110v62h-110v77h54v-22h80z" />
    <glyph glyph-name="gcommaaccent" unicode="&#x123;" horiz-adv-x="465" 
d="M40 0zM106 339v-179q2 -38 42 -38h209v189q0 28 -26 28h-225zM124 0q-82 0 -84 122v279h299q44 0 64 -30.5t20 -92.5v-316q-2 -122 -84 -122h-173v94h149q35 0 42 40v26h-233zM277 419h-96v118l63 66h29l-52 -66h56v-118z" />
    <glyph glyph-name="uni012A" unicode="&#x12a;" horiz-adv-x="270" 
d="M0 0zM74 641h112v-641h-112v641zM0 731h269v-59h-269v59z" />
    <glyph glyph-name="imacron" unicode="&#x12b;" horiz-adv-x="269" 
d="M0 2zM99 401h66v-399h-66v399zM-1 494h269v-59h-269v59z" />
    <glyph glyph-name="Iogonek" unicode="&#x12e;" horiz-adv-x="192" 
d="M0 0zM40 641h112v-641h-112v641zM71 -16v22h54v-77h-110v-62h110v-26h-134v143h80z" />
    <glyph glyph-name="iogonek" unicode="&#x12f;" horiz-adv-x="162" 
d="M0 0zM40 464v96h82v-96h-82zM48 401h66v-399h-66v399zM58 -16v22h54v-77h-110v-62h110v-26h-134v143h80z" />
    <glyph glyph-name="Idotaccent" unicode="&#x130;" horiz-adv-x="192" 
d="M40 0zM40 641h112v-641h-112v641zM52 741h82v-79h-82v79z" />
    <glyph glyph-name="dotlessi" unicode="&#x131;" horiz-adv-x="162" 
d="M48 401h66v-399h-66v399z" />
    <glyph glyph-name="Kcommaaccent" unicode="&#x136;" horiz-adv-x="640" 
d="M40 0zM40 0v641h82v-641h-82zM144 250l432 391h52l-382 -351l382 -290h-145zM352 -16v-143h-134v26h110v62h-110v77h54v-22h80z" />
    <glyph glyph-name="kcommaaccent" unicode="&#x137;" horiz-adv-x="403" 
d="M40 0zM40 0v641h82v-418l160 178h52l-147 -168l176 -233h-101l-140 194v-194h-82zM278 -16v-143h-134v26h110v62h-110v77h54v-22h80z" />
    <glyph glyph-name="Lacute" unicode="&#x139;" horiz-adv-x="600" 
d="M17 0zM40 641h96v-521h424v-120h-520v641zM172 690l-155 -32v29l155 32v-29z" />
    <glyph glyph-name="lacute" unicode="&#x13a;" horiz-adv-x="162" 
d="M9 2zM40 641h82v-639h-82v639zM164 690l-155 -32v29l155 32v-29z" />
    <glyph glyph-name="Lcommaaccent" unicode="&#x13b;" horiz-adv-x="600" 
d="M40 0zM40 641h96v-521h424v-120h-520v641zM352 -16v-143h-134v26h110v62h-110v77h54v-22h80z" />
    <glyph glyph-name="lcommaaccent" unicode="&#x13c;" horiz-adv-x="162" 
d="M40 0zM40 641h82v-639h-82v639zM189 -16v-143h-134v26h110v62h-110v77h54v-22h80z" />
    <glyph glyph-name="Lcaron" unicode="&#x13d;" horiz-adv-x="600" 
d="M40 0zM40 641h96v-521h424v-120h-520v641zM171 640h96v-118l-63 -66h-29l52 66h-56v118z" />
    <glyph glyph-name="lcaron" unicode="&#x13e;" horiz-adv-x="209" 
d="M40 2zM40 641h82v-639h-82v639zM138 641h96v-118l-63 -66h-29l52 66h-56v118z" />
    <glyph glyph-name="Lslash" unicode="&#x141;" horiz-adv-x="600" 
d="M0 0zM40 641h96v-521h424v-120h-520v641zM9.95117 293h-37.3652l225.971 133.998h40.0342z" />
    <glyph glyph-name="lslash" unicode="&#x142;" horiz-adv-x="162" 
d="M0 2zM40 641h82v-639h-82v639zM19.5908 279h-29.4971l178.392 117.996h31.6055z" />
    <glyph glyph-name="Nacute" unicode="&#x143;" horiz-adv-x="661" 
d="M40 0zM122 492v-492h-82v641h82v-63l399 -487v550h100v-641h-100zM391 690l-155 -32v29l155 32v-29z" />
    <glyph glyph-name="nacute" unicode="&#x144;" horiz-adv-x="431" 
d="M40 0zM40 401h267q82 0 84 -123v-278h-98v311q0 28 -26 28h-161v-337h-66v399zM282 453l-155 -32v29l155 32v-29z" />
    <glyph glyph-name="Ncommaaccent" unicode="&#x145;" horiz-adv-x="661" 
d="M40 0zM122 492v-492h-82v641h82v-63l399 -487v550h100v-641h-100zM363 -16v-143h-134v26h110v62h-110v77h54v-22h80z" />
    <glyph glyph-name="ncommaaccent" unicode="&#x146;" horiz-adv-x="431" 
d="M40 0zM40 401h267q82 0 84 -123v-278h-98v311q0 28 -26 28h-161v-337h-66v399zM284 -16v-143h-134v26h110v62h-110v77h54v-22h80z" />
    <glyph glyph-name="Ncaron" unicode="&#x147;" horiz-adv-x="661" 
d="M40 0zM122 492v-492h-82v641h82v-63l399 -487v550h100v-641h-100zM206 684v41l99 -32l99 32v-41l-99 -32z" />
    <glyph glyph-name="ncaron" unicode="&#x148;" horiz-adv-x="431" 
d="M40 0zM40 401h267q82 0 84 -123v-278h-98v311q0 28 -26 28h-161v-337h-66v399zM107 447v41l99 -32l99 32v-41l-99 -32z" />
    <glyph glyph-name="Omacron" unicode="&#x14c;" horiz-adv-x="658" 
d="M40 0zM106 518v-358q2 -38 42 -38h404v368q0 28 -26 28h-420zM124 0q-82 0 -84 122v519h494q84 0 84 -123v-518h-494zM184 731h269v-59h-269v59z" />
    <glyph glyph-name="omacron" unicode="&#x14d;" 
d="M40 0zM106 339v-179q2 -38 42 -38h209v189q0 28 -26 28h-225zM124 0q-82 0 -84 122v279h299q82 0 84 -123v-278h-299zM87 494h269v-59h-269v59z" />
    <glyph glyph-name="Ohungarumlaut" unicode="&#x150;" horiz-adv-x="658" 
d="M40 0zM106 518v-358q2 -38 42 -38h404v368q0 28 -26 28h-420zM124 0q-82 0 -84 122v519h494q84 0 84 -123v-518h-494zM285 759h34l-98 -97h-34zM299 662l98 97h37l-97 -97h-38z" />
    <glyph glyph-name="ohungarumlaut" unicode="&#x151;" 
d="M40 0zM106 339v-179q2 -38 42 -38h209v189q0 28 -26 28h-225zM124 0q-82 0 -84 122v279h299q82 0 84 -123v-278h-299zM202 522h34l-98 -97h-34zM216 425l98 97h37l-97 -97h-38z" />
    <glyph glyph-name="OE" unicode="&#x152;" horiz-adv-x="700" 
d="M393 440h267v-64h-227zM106 518v-358q2 -38 42 -38h178v368q0 28 -25 28h-195zM124 0q-82 0 -84 122v519h620v-123h-278v-398h278v-120h-536z" />
    <glyph glyph-name="oe" unicode="&#x153;" horiz-adv-x="638" 
d="M356 255h175v56q0 28 -25 28h-150v-84zM106 339v-179q2 -38 42 -38h141v189q0 28 -26 28h-157zM124 0q-82 0 -84 122v279h474q41 0 62.5 -30.5t21.5 -92.5v-57h-242v-61q0 -19 11 -28.5t31 -9.5h200v-122h-474z" />
    <glyph glyph-name="Racute" unicode="&#x154;" horiz-adv-x="596" 
d="M40 0zM122 518v-518h-82v641h446q48 0 71 -23.5t23 -53.5q0 -23 -12.5 -46t-37.5 -38l-284 -202l334 -278h-145l-291 250l331 238q10 7 10 14t-6.5 11.5t-16.5 4.5h-340zM356 690l-155 -32v29l155 32v-29z" />
    <glyph glyph-name="racute" unicode="&#x155;" horiz-adv-x="249" 
d="M40 0zM40 278q1 123 84 123h85v-123h-61q-41 0 -42 -37v-241h-66v278zM218 453l-155 -32v29l155 32v-29z" />
    <glyph glyph-name="Rcommaaccent" unicode="&#x156;" horiz-adv-x="596" 
d="M40 0zM122 518v-518h-82v641h446q48 0 71 -23.5t23 -53.5q0 -23 -12.5 -46t-37.5 -38l-284 -202l334 -278h-145l-291 250l331 238q10 7 10 14t-6.5 11.5t-16.5 4.5h-340zM339 -16v-143h-134v26h110v62h-110v77h54v-22h80z" />
    <glyph glyph-name="rcommaaccent" unicode="&#x157;" horiz-adv-x="249" 
d="M40 0zM40 278q1 123 84 123h85v-123h-61q-41 0 -42 -37v-241h-66v278zM183 -16v-143h-134v26h110v62h-110v77h54v-22h80z" />
    <glyph glyph-name="Rcaron" unicode="&#x158;" horiz-adv-x="596" 
d="M40 0zM122 518v-518h-82v641h446q48 0 71 -23.5t23 -53.5q0 -23 -12.5 -46t-37.5 -38l-284 -202l334 -278h-145l-291 250l331 238q10 7 10 14t-6.5 11.5t-16.5 4.5h-340zM196 684v41l99 -32l99 32v-41l-99 -32z" />
    <glyph glyph-name="rcaron" unicode="&#x159;" horiz-adv-x="249" 
d="M32 0zM40 278q1 123 84 123h85v-123h-61q-41 0 -42 -37v-241h-66v278zM32 447v41l99 -32l99 32v-41l-99 -32z" />
    <glyph glyph-name="Sacute" unicode="&#x15a;" horiz-adv-x="624" 
d="M44 0zM462 122q22 0 22 16q0 9 -9 15l-381 327q-25 15 -37.5 38t-12.5 46q0 30 23 53.5t71 23.5h444v-123h-420q-23 0 -23 -16q0 -7 10 -14l381 -327q25 -15 37.5 -38t12.5 -46q0 -30 -23 -53.5t-71 -23.5h-437v122h413zM384 690l-155 -32v29l155 32v-29z" />
    <glyph glyph-name="sacute" unicode="&#x15b;" 
d="M40 0zM106 246h317v-124q0 -61 -21.5 -91.5t-62.5 -30.5h-299v122h275q20 0 31 9.5t11 28.5v34h-316l-1 84q1 123 84 123h299v-62h-291q-26 0 -26 -28v-65zM318 453l-155 -32v29l155 32v-29z" />
    <glyph glyph-name="Scaron" unicode="&#x160;" horiz-adv-x="624" 
d="M44 0zM462 122q22 0 22 16q0 9 -9 15l-381 327q-25 15 -37.5 38t-12.5 46q0 30 23 53.5t71 23.5h444v-123h-420q-23 0 -23 -16q0 -7 10 -14l381 -327q25 -15 37.5 -38t12.5 -46q0 -30 -23 -53.5t-71 -23.5h-437v122h413zM206 684v41l99 -32l99 32v-41l-99 -32z" />
    <glyph glyph-name="scaron" unicode="&#x161;" 
d="M40 0zM106 246h317v-124q0 -61 -21.5 -91.5t-62.5 -30.5h-299v122h275q20 0 31 9.5t11 28.5v34h-316l-1 84q1 123 84 123h299v-62h-291q-26 0 -26 -28v-65zM143 447v41l99 -32l99 32v-41l-99 -32z" />
    <glyph glyph-name="Tcommaaccent" unicode="&#x162;" horiz-adv-x="600" 
d="M20 0zM20 641h560v-123h-235v-518h-83v518h-242v123zM409 -16v-143h-134v26h110v62h-110v77h54v-22h80z" />
    <glyph glyph-name="tcommaaccent" unicode="&#x163;" horiz-adv-x="249" 
d="M40 0zM124 0q-82 0 -84 122v437h66v-158h103l-32 -62h-71v-179q2 -38 42 -38h61v-122h-85zM251 -16v-143h-134v26h110v62h-110v77h54v-22h80z" />
    <glyph glyph-name="Tcaron" unicode="&#x164;" horiz-adv-x="600" 
d="M20 0zM20 641h560v-123h-235v-518h-83v518h-242v123zM206 684v41l99 -32l99 32v-41l-99 -32z" />
    <glyph glyph-name="tcaron" unicode="&#x165;" horiz-adv-x="249" 
d="M40 0zM124 0q-82 0 -84 122v437h66v-158h103l-32 -62h-71v-179q2 -38 42 -38h61v-122h-85zM134 641h96v-118l-63 -66h-29l52 66h-56v118z" />
    <glyph glyph-name="Umacron" unicode="&#x16a;" horiz-adv-x="658" 
d="M40 0zM106 160q2 -38 42 -38h404v519h66v-641h-494q-82 0 -84 122v519h66v-481zM186 731h269v-59h-269v59z" />
    <glyph glyph-name="umacron" unicode="&#x16b;" horiz-adv-x="447" 
d="M40 0zM124 0q-82 0 -84 122v279h66v-241q2 -38 42 -38h193v279h66v-401h-283zM85 494h269v-59h-269v59z" />
    <glyph glyph-name="Uring" unicode="&#x16e;" horiz-adv-x="658" 
d="M40 0zM106 160q2 -38 42 -38h404v519h66v-641h-494q-82 0 -84 122v519h66v-481zM341 683v84h-85v-84h85zM235 784h151v-130h-151v130z" />
    <glyph glyph-name="uring" unicode="&#x16f;" horiz-adv-x="447" 
d="M40 0zM124 0q-82 0 -84 122v279h66v-241q2 -38 42 -38h193v279h66v-401h-283zM251 446v84h-85v-84h85zM145 547h151v-130h-151v130z" />
    <glyph glyph-name="Uhungarumlaut" unicode="&#x170;" horiz-adv-x="658" 
d="M40 0zM106 160q2 -38 42 -38h404v519h66v-641h-494q-82 0 -84 122v519h66v-481zM288 759h34l-98 -97h-34zM302 662l98 97h37l-97 -97h-38z" />
    <glyph glyph-name="uhungarumlaut" unicode="&#x171;" horiz-adv-x="447" 
d="M40 0zM124 0q-82 0 -84 122v279h66v-241q2 -38 42 -38h193v279h66v-401h-283zM217 522h34l-98 -97h-34zM231 425l98 97h37l-97 -97h-38z" />
    <glyph glyph-name="Uogonek" unicode="&#x172;" horiz-adv-x="658" 
d="M40 0zM106 160q2 -38 42 -38h404v519h66v-641h-494q-82 0 -84 122v519h66v-481zM332 -16v22h54v-77h-110v-62h110v-26h-134v143h80z" />
    <glyph glyph-name="uogonek" unicode="&#x173;" horiz-adv-x="447" 
d="M40 0zM124 0q-82 0 -84 122v279h66v-241q2 -38 42 -38h193v279h66v-401h-283zM256 -16v22h54v-77h-110v-62h110v-26h-134v143h80z" />
    <glyph glyph-name="Ydieresis" unicode="&#x178;" horiz-adv-x="659" 
d="M40 0zM106 343q1 -37 42 -37h404v335h67v-519q-2 -122 -84 -122h-494l66 122h404q40 0 42 38v79h-429q-83 0 -84 123v279h66v-298zM359 741h82v-79h-82v79zM223 741h82v-79h-82v79z" />
    <glyph glyph-name="Zacute" unicode="&#x179;" horiz-adv-x="640" 
d="M42 0zM591 122v-122h-453q-48 0 -71 23.5t-23 53.5q0 23 12.5 46t37.5 38l397 327q10 7 10 14t-6.5 11.5t-16.5 4.5h-436v123h460q48 0 71 -23.5t23 -53.5q0 -23 -12.5 -46t-37.5 -38l-397 -327q-10 -7 -10 -15q0 -16 23 -16h429zM405 690l-155 -32v29l155 32v-29z" />
    <glyph glyph-name="zacute" unicode="&#x17a;" horiz-adv-x="414" 
d="M40 0zM134 122h240v-122h-334v90l258 249h-258v62h334v-46zM291 453l-155 -32v29l155 32v-29z" />
    <glyph glyph-name="Zdotaccent" unicode="&#x17b;" horiz-adv-x="640" 
d="M42 0zM591 122v-122h-453q-48 0 -71 23.5t-23 53.5q0 23 12.5 46t37.5 38l397 327q10 7 10 14t-6.5 11.5t-16.5 4.5h-436v123h460q48 0 71 -23.5t23 -53.5q0 -23 -12.5 -46t-37.5 -38l-397 -327q-10 -7 -10 -15q0 -16 23 -16h429zM276 741h82v-79h-82v79z" />
    <glyph glyph-name="zdotaccent" unicode="&#x17c;" horiz-adv-x="414" 
d="M40 0zM134 122h240v-122h-334v90l258 249h-258v62h334v-46zM173 504h82v-79h-82v79z" />
    <glyph glyph-name="Zcaron" unicode="&#x17d;" horiz-adv-x="640" 
d="M42 0zM591 122v-122h-453q-48 0 -71 23.5t-23 53.5q0 23 12.5 46t37.5 38l397 327q10 7 10 14t-6.5 11.5t-16.5 4.5h-436v123h460q48 0 71 -23.5t23 -53.5q0 -23 -12.5 -46t-37.5 -38l-397 -327q-10 -7 -10 -15q0 -16 23 -16h429zM217 684v41l99 -32l99 32v-41l-99 -32z
" />
    <glyph glyph-name="zcaron" unicode="&#x17e;" horiz-adv-x="414" 
d="M40 0zM134 122h240v-122h-334v90l258 249h-258v62h334v-46zM112 447v41l99 -32l99 32v-41l-99 -32z" />
    <glyph glyph-name="Scommaaccent" unicode="&#x218;" horiz-adv-x="624" 
d="M44 0zM462 122q22 0 22 16q0 9 -9 15l-381 327q-25 15 -37.5 38t-12.5 46q0 30 23 53.5t71 23.5h444v-123h-420q-23 0 -23 -16q0 -7 10 -14l381 -327q25 -15 37.5 -38t12.5 -46q0 -30 -23 -53.5t-71 -23.5h-437v122h413zM389 -16v-143h-134v26h110v62h-110v77h54v-22h80z
" />
    <glyph glyph-name="scommaaccent" unicode="&#x219;" 
d="M40 0zM106 246h317v-124q0 -61 -21.5 -91.5t-62.5 -30.5h-299v122h275q20 0 31 9.5t11 28.5v34h-316l-1 84q1 123 84 123h299v-62h-291q-26 0 -26 -28v-65zM293 -16v-143h-134v26h110v62h-110v77h54v-22h80z" />
    <glyph glyph-name="circumflex" unicode="&#x2c6;" horiz-adv-x="278" 
d="M238 694v-41l-99 32l-99 -32v41l99 32z" />
    <glyph glyph-name="caron" unicode="&#x2c7;" horiz-adv-x="278" 
d="M40 684v41l99 -32l99 32v-41l-99 -32z" />
    <glyph glyph-name="breve" unicode="&#x2d8;" horiz-adv-x="282" 
d="M40 722q56 -32 98 -32q43 0 104 32v-43q-60 -29 -102 -29t-100 29v43z" />
    <glyph glyph-name="dotaccent" unicode="&#x2d9;" horiz-adv-x="162" 
d="M40 741h82v-79h-82v79z" />
    <glyph glyph-name="ring" unicode="&#x2da;" horiz-adv-x="231" 
d="M146 683v84h-85v-84h85zM40 784h151v-130h-151v130z" />
    <glyph glyph-name="ogonek" unicode="&#x2db;" horiz-adv-x="195" 
d="M110 -16v22h54v-77h-110v-62h110v-26h-134v143h80z" />
    <glyph glyph-name="tilde" unicode="&#x2dc;" horiz-adv-x="207" 
d="M134 670q-23 8 -33.5 14t-18.5 6h-1q-13 0 -32 -25l-28 24q22 41 55 41h1q4 0 12 -3t16.5 -6.5t17 -6.5t13.5 -4h2q15 0 26 24l25 -28q-6 -20 -21.5 -28t-33.5 -8z" />
    <glyph glyph-name="hungarumlaut" unicode="&#x2dd;" horiz-adv-x="327" 
d="M138 759h34l-98 -97h-34zM152 662l98 97h37l-97 -97h-38z" />
    <glyph glyph-name="mu" unicode="&#x3bc;" horiz-adv-x="447" 
d="M407 0h-300v-156h-67v557h67v-251q6 -28 41 -28h193v279h66v-401z" />
    <glyph glyph-name="endash" unicode="&#x2013;" horiz-adv-x="494" 
d="M40 384h416v-66h-384z" />
    <glyph glyph-name="emdash" unicode="&#x2014;" horiz-adv-x="739" 
d="M40 384h650v-66h-618z" />
    <glyph glyph-name="quoteleft" unicode="&#x2018;" horiz-adv-x="121" 
d="M107 502h-96v118l63 66h29l-52 -66h56v-118z" />
    <glyph glyph-name="quoteright" unicode="&#x2019;" horiz-adv-x="121" 
d="M12 660h96v-118l-63 -66h-29l52 66h-56v118z" />
    <glyph glyph-name="quotesinglbase" unicode="&#x201a;" horiz-adv-x="176" 
d="M40 0zM40 118h96v-118l-63 -66h-29l52 66h-56v118z" />
    <glyph glyph-name="quotedblleft" unicode="&#x201c;" horiz-adv-x="268" 
d="M110 502h-96v118l63 66h29l-52 -66h56v-118zM250 502h-96v118l63 66h29l-52 -66h56v-118z" />
    <glyph glyph-name="quotedblright" unicode="&#x201d;" horiz-adv-x="265" 
d="M11 660h96v-118l-63 -66h-29l52 66h-56v118zM151 660h96v-118l-63 -66h-29l52 66h-56v118z" />
    <glyph glyph-name="quotedblbase" unicode="&#x201e;" horiz-adv-x="337" 
d="M40 0zM196 118h96v-118l-63 -66h-29l52 66h-56v118zM40 118h96v-118l-63 -66h-29l52 66h-56v118z" />
    <glyph glyph-name="dagger" unicode="&#x2020;" horiz-adv-x="598" 
d="M515 262v74h45v-74h-45zM450 336v-85h-214v-67h255v-142h-361v97h-28v41h28v71h-125v103h49v219h182v-38h207v-102h-207v-34h-88v-63h302z" />
    <glyph glyph-name="daggerdbl" unicode="&#x2021;" horiz-adv-x="500" 
d="M279 540h-210v69h210v-69zM366 366v135h66v-481h-238v75h172v169h-87v-113h-210v350h210v-135h87z" />
    <glyph glyph-name="bullet" unicode="&#x2022;" horiz-adv-x="500" 
d="M251 581l181 -87l44 -195l-125 -157h-200l-125 157l44 195z" />
    <glyph glyph-name="ellipsis" unicode="&#x2026;" horiz-adv-x="1328" 
d="M240 0zM240 118h96v-118h-96v118zM616 118h96v-118h-96v118zM992 118h96v-118h-96v118z" />
    <glyph glyph-name="perthousand" unicode="&#x2030;" horiz-adv-x="1024" 
d="M79 569v-123q1 -22 25 -22h144v128q0 17 -15 17h-154zM90 351q-49 0 -50 73v217h198q47 0 49 -72v-218h-197zM465 218v-123q1 -22 25 -22h144v128q0 17 -16 17h-153zM475 0q-49 0 -49 73v217h197q48 0 50 -72v-218h-198zM122 0h-58l536 641h61zM765 218v-123
q1 -22 25 -22h144v128q0 17 -16 17h-153zM775 0q-49 0 -49 73v217h197q48 0 50 -72v-218h-198z" />
    <glyph glyph-name="guilsinglleft" unicode="&#x2039;" horiz-adv-x="218" 
d="M20 156zM138 573h55.5l-128.5 -211l128 -206h-27.5l-145.5 228z" />
    <glyph glyph-name="guilsinglright" unicode="&#x203a;" horiz-adv-x="222" 
d="M20 155zM75.5 155h-55.5l128.5 211l-127.5 206h27l145.5 -228z" />
    <glyph glyph-name="fraction" unicode="&#x2044;" horiz-adv-x="576" 
d="M82 0h-42l474 641h45z" />
    <glyph glyph-name="Euro" unicode="&#x20ac;" horiz-adv-x="598" 
d="M249 240h-143v-80q2 -38 42 -38h410v-122h-434q-41 0 -62.5 30.5t-21.5 91.5v118h-39v51h39v64h-39v49h39v237h518v-123h-452v-114h178l-35 -49h-143v-64h178z" />
    <glyph glyph-name="trademark" unicode="&#x2122;" horiz-adv-x="649" 
d="M22 640h216v-77h-78v-259h-57v259h-81v77zM334 640l129 -158l97 121v37h58v-336h-58v247l-108 -139l-114 143v-251h-57v336h53z" />
    <glyph glyph-name=".ttfautohint" horiz-adv-x="0" 
d="M0 0z" />
    </font>
</defs>
</svg>
